# xmcd CD database file
#
# Track frame offsets:
#	150
#	31007
#	75417
#	105474
#	133112
#	163980
#	197952
#	230394
#	255485
#	278380
#
# Disc length: 4221 seconds
#
# Revision: 0
# Processed by: cddbd v1.5.1PL0 Copyright (c) Steve Scherf et al.
# Submitted via: CDex 1.51
#
DISCID=77107b0a
DTITLE=Dave Weckl - Transition 
DYEAR=2000
DGENRE=Jazz
TTITLE0=Dave Weckl: Transition 2000 - Wake up
TTITLE1=Dave Weckl: Transition 2000 - Braziluba
TTITLE2=Dave Weckl: Transition 2000 - Like that
TTITLE3=Dave Weckl: Transition 2000 - Mild hysteria
TTITLE4=Dave Weckl: Transition 2000 - Group therapy
TTITLE5=Dave Weckl: Transition 2000 - Passion
TTITLE6=Dave Weckl: Transition 2000 - Crossing path
TTITLE7=Dave Weckl: Transition 2000 - Alegria
TTITLE8=Dave Weckl: Transition 2000 - Just for the record
TTITLE9=Dave Weckl: Transition 2000 - Amanecer
EXTD=YEAR: 2000
EXTT0=
EXTT1=
EXTT2=
EXTT3=
EXTT4=
EXTT5=
EXTT6=
EXTT7=
EXTT8=
EXTT9=
PLAYORDER=
